# xmcd CD database file
# Copyright (C) 1997 Ti Kan
# 
# Track frame offsets:
#     150
#     9258
#     22100
#     33503
#     45820
#     55048
#     65903
#     79243
#     90040
#     110120
#     121248
#     133830
#     149530
#     159033
#     169408
#     181305
#     194215
#     205398
#     217985
#     228205
#     244793
#     258643
#     271468
#     286425
# 
# Disc length: 3984 seconds
# 
# Revision: 1
# Processed by: cddbd v1.4b41PL1 Copyright (c) Steve Scherf et al.
# Submitted via: DiscPlay 4.0.4
# 
DISCID=5e0f8e18
DTITLE=The Osborne Brothers and Mac Wiseman - The Osborne Brothers and Mac W
DTITLE=iseman
DYEAR=1900
DGENRE=
TTITLE0=Midnight Flyer
TTITLE1=Shackles and Chains
TTITLE2=Four Walls Around Me
TTITLE3=I'm a Stranger Here
TTITLE4=You're the Girl of My Dreams
TTITLE5=Family Bible
TTITLE6=Mother Maybelle
TTITLE7=Poison Love
TTITLE8=Take Me Back to Renfro Valley
TTITLE9=Mountain Fever
TTITLE10='Tis Sweet to Be Remembered
TTITLE11=I'll Keep on The Sunny Side
TTITLE12=It's Goodbye and So Long To You
TTITLE13=Shenandoah Waltz
TTITLE14=I'll Still Write Your Name in the Sand
TTITLE15=Pins and Needles
TTITLE16=Are You Coming Back To Me
TTITLE17=The Bluebirds Are Singing For Me
TTITLE18=Old Brush Arbors
TTITLE19=Don't Let Your Sweet Love Die
TTITLE20=Travelin' This Lonesome Road
TTITLE21=I Wonder How The Old Folks Are At Home
TTITLE22=I've Always Wanted To Sing In Renfro Valley
TTITLE23=Little White Church
EXTD=
EXTT0=
EXTT1=
EXTT2=
EXTT3=
EXTT4=
EXTT5=
EXTT6=
EXTT7=
EXTT8=
EXTT9=
EXTT10=
EXTT11=
EXTT12=
EXTT13=
EXTT14=
EXTT15=
EXTT16=
EXTT17=
EXTT18=
EXTT19=
EXTT20=
EXTT21=
EXTT22=
EXTT23=
PLAYORDER=
